<svg id="Layer_1" data-name="Layer 1" xmlns="http://www.w3.org/2000/svg" viewBox="0 0 80.52 62.87"><defs><style>.cls-1{fill:#fff;}.cls-2{fill:#f0f0f0;}.cls-3{fill:#f4efef;}.cls-4{fill:#f6f6ea;}.cls-5{fill:#020202;}.cls-6{fill:#e21b22;}.cls-7{fill:#f2e60a;}.cls-8{fill:#f3f5a8;}</style></defs><g id="Layer_2" data-name="Layer 2"><g id="logo-dark"><path class="cls-1" d="M40.22,33.94H18a2,2,0,0,1-2-1.14c-3.65-6.44-7.36-12.88-11-19.32L.3,5.4A1.58,1.58,0,0,1,.6,3.2c.72-.5,1.51-.3,2.2.5A18.64,18.64,0,0,0,8.46,8a46.19,46.19,0,0,0,15.28,4.77c3.68.52,7.4.8,11.1,1.19a.6.6,0,0,0,.74-.42v0a42.65,42.65,0,0,0,3.17-12A1.52,1.52,0,0,1,40.25,0h0a1.54,1.54,0,0,1,1.45,1.53,42.33,42.33,0,0,0,3.23,12,.73.73,0,0,0,.57.35,80,80,0,0,0,17.35-2.44,42.61,42.61,0,0,0,9-3.43,18.63,18.63,0,0,0,6-4.51,1.44,1.44,0,0,1,2-.29l.05,0a1.54,1.54,0,0,1,.29,2.09C79.53,6.57,78.81,7.79,78.1,9l-7,12.23q-3.42,6-6.82,11.94a1.61,1.61,0,0,1-1.53.75H40.22Zm0-24.75a44.82,44.82,0,0,1-13.7,21.74H54a42.71,42.71,0,0,1-8.45-9.83,46.76,46.76,0,0,1-5.3-11.91ZM6.68,10.55c1.29,2.27,2.59,4.53,3.89,6.8L15,25.19c1,1.77,2,3.53,3,5.3.11.19.32.47.49.47,1.51,0,3.12.38,4.36-1A11,11,0,0,1,24,29a38.53,38.53,0,0,0,8-8.7c.72-1.09,1.35-2.24,2.07-3.44C24.48,16.25,15.26,14.89,6.68,10.55Zm39.8,6.32c.4.68.74,1.28,1.09,1.87a39.84,39.84,0,0,0,9.77,11.12A4.31,4.31,0,0,0,60.79,31a3.57,3.57,0,0,1,.8,0,.72.72,0,0,0,.79-.43c.57-1.05,1.18-2.08,1.78-3.11q3.45-6.06,6.92-12.12l2.72-4.77C65.23,14.89,56,16.25,46.48,16.87Z" transform="translate(0.02 0)"/><path class="cls-1" d="M45.74,49.83H41.89c1-.8.8-1.82.81-2.8,0-1.32,0-2.64-.09-4-.27.63-.55,1.26-.81,1.89-.42.93-.8,1.87-1.13,2.84a2.5,2.5,0,0,0,.23,1.29,4.52,4.52,0,0,0,.5.85H39.47a1.38,1.38,0,0,1-1.37-1c-.71-2-1.44-4-2.17-5.93a.59.59,0,0,0-.25-.33v1c0,1.28.06,2.57.07,3.86a2.61,2.61,0,0,0,.87,2.35H33.86c1.14-1.85.31-3.85.44-5.8.05-.82-.07-1.64-.08-2.46a2.72,2.72,0,0,0-.87-2.49h5.06A4.39,4.39,0,0,0,38,40.37a4,4,0,0,0,.38,1.26c.49,1.46,1,2.92,1.54,4.51l1.55-3.73c.3-.71.62-1.42.89-2.15a1.6,1.6,0,0,1,1.57-1.11h2.4c-1,.78-.8,1.92-.84,3-.08,2-.17,4-.18,6A6.91,6.91,0,0,0,45.74,49.83Z" transform="translate(0.02 0)"/><path class="cls-1" d="M40.3,58.63a29.62,29.62,0,0,0-1.1,2.89,3.35,3.35,0,0,0,.21,1.33H37.16a1.54,1.54,0,0,1-1.45-1.26c-.44-1.44-.83-2.89-1.23-4.34-.34-1.22-.63-2.45-1-3.65a10.84,10.84,0,0,0-.77-1.52h4.15c-.92.66-.66,1.36-.47,2.07.57,2.11,1.12,4.22,1.72,6.51.47-1.16.84-2.19,1.29-3.17.83-1.8.24-3.37-.66-4.91l-.27-.42H42.6c-.82.61-.51,1.29-.38,2,.42,2.09.81,4.19,1.33,6.3.33-1.1.67-2.2,1-3.3s.57-2,.89-3c.24-.72.43-1.41-.48-2.07h3c-1.35,1.63-1.52,3.75-2.23,5.65-.38,1-.64,2-1,3a1.77,1.77,0,0,0,.33,2,16,16,0,0,1-2.77,0c-1-.17-1.2-1.14-1.41-2s-.29-1.43-.43-2.14Z" transform="translate(0.02 0)"/><path class="cls-1" d="M62.08,48.61,57.84,49c1.37-1.13,1.07-2.59,1.26-3.88.27-1.89.37-3.8.6-5.69a2,2,0,0,0-.63-1.83l4.19-.78c-1.21,1.2-.87,2.77-1.13,4.18-.15.84-.21,1.71-.32,2.71,1.17-.62,2.26-1.18,3.33-1.77a.63.63,0,0,0,.22-.44c.16-1.12.35-2.24.42-3.36a9.45,9.45,0,0,0-.29-1.82l4.1-1C68,36.87,68.38,38.79,68,40.51s-.51,3.46-.73,5.2a2.35,2.35,0,0,0,.43,2.09l-4.07.58c1.54-1.46,1-3.32,1.54-5.13-1.27.65-2.35,1.19-3.42,1.75a.33.33,0,0,0-.15.27C61.64,46.38,61,47.56,62.08,48.61Z" transform="translate(0.02 0)"/><path class="cls-1" d="M66.16,62.86H62.32c1.48-1.41.93-3.27,1.47-5-1.13.47-2.1.87-3.07,1.29a.33.33,0,0,0-.25.26c-.07,1.14-.62,2.33.31,3.45H57c1.2-1.08,1-2.55,1.12-3.9.23-1.85.39-3.7.62-5.55a2,2,0,0,0-.63-2L62.24,51c-1.3,1.16-1.07,2.67-1.26,4-.13.9-.22,1.8-.34,2.81,1.08-.47,2.09-.89,3.08-1.35.13-.06.21-.32.23-.49.19-1.25.4-2.5.49-3.76a4.57,4.57,0,0,0-.44-1.4l3.74-.42c-1.37,2-1.08,4.34-1.51,6.54-.18.93-.29,1.88-.41,2.83S65.37,61.86,66.16,62.86Z" transform="translate(0.02 0)"/><path class="cls-1" d="M18.75,43c1.42,2,2.24,4.31,4.09,5.94a3.53,3.53,0,0,1-4.08-1.69l-1-1.66c-.33-.55-.66-1.1-1-1.69l-1.33.42c.25,1.37,0,2.85,1.35,4.06l-4.18-.59c1.08-1.23.38-2.48.25-3.69-.23-2.18-.51-4.36-.87-6.53a11.79,11.79,0,0,0-.84-2.16c.83.2,1.77.42,2.7.66a45.86,45.86,0,0,1,4.6,1.23,4.55,4.55,0,0,1,1.95,1.52A2.24,2.24,0,0,1,20.12,42l-.12.09C19.59,42.37,19.21,42.64,18.75,43Zm-3.47.22a3.45,3.45,0,0,0,2.84-4c0-.06,0-.13,0-.19a1.68,1.68,0,0,0-1.14-1.36c-.77-.24-1.57-.38-2.43-.58Z" transform="translate(0.02 0)"/><path class="cls-1" d="M22,37.76l4.23.57a1.91,1.91,0,0,0-.71,1.94c.2,2.24.35,4.47.56,6.7a1.83,1.83,0,0,0,2.11,1.5,1.89,1.89,0,0,0,.81-.35,1.45,1.45,0,0,0,.45-1c-.1-2.22-.22-4.44-.43-6.65a8.27,8.27,0,0,0-.67-1.86l4.1.33c-1.24,1.15-.62,2.53-.63,3.81s.09,2.66.21,4c.15,1.62-.56,2.25-2,2.58a6.54,6.54,0,0,1-5.4-.92,2.56,2.56,0,0,1-1.13-2c-.18-2.06-.42-4.11-.59-6.17A2.81,2.81,0,0,0,22,37.93Z" transform="translate(0.02 0)"/><path class="cls-1" d="M23.8,62.86H22.21a2,2,0,0,1-2.05-1.18c-.77-1.32-1.56-2.62-2.35-3.94-1.2,1.31-1.11,3.1.25,5.08H14.39c1-1.5.19-3,0-4.57-.19-2-.54-4-.89-6a9.92,9.92,0,0,0-.74-1.82l3,.36.77,5.87c.73-1.14,1.39-2.14,2-3.15a12.28,12.28,0,0,0,.73-1.27,4.88,4.88,0,0,0,.25-1l2.19.18c-.79,1.19-1.55,2.37-2.35,3.52a1,1,0,0,0-.05,1.28c1,1.54,1.88,3.16,2.86,4.72C22.7,61.57,23.28,62.19,23.8,62.86Z" transform="translate(0.02 0)"/><path class="cls-1" d="M57.21,49.1l-4.06.37c1.18-1.39,0-2.56,0-3.9-1.33.52-2.56,1-3.76,1.51-.51.22-.76,1.67-.43,2.13l.32.45-2.73.13a74.79,74.79,0,0,0,3.78-9.07,1.54,1.54,0,0,0-.41-1.94C51,38.69,52,38.57,53,38.53c.72,0,1.15.32,1.4,1.17.51,1.77,1,3.55,1.45,5.32.22.81.37,1.65.62,2.45A14,14,0,0,0,57.21,49.1Zm-5.54-8.33c-.69,1.74-1.29,3.29-2,5l3-1.25Z" transform="translate(0.02 0)"/><path class="cls-1" d="M56.43,62.85H52.61c1.09-1.33-.1-2.53,0-3.93l-2.1.78-.49.19c-.6.21-1.15.38-1.39,1.13A1.61,1.61,0,0,0,49,62.83H46.4A61.29,61.29,0,0,0,50,53.88c.32-1,.26-1.09-.39-2h3c.7,0,1,.59,1.17,1.2.45,1.81.84,3.63,1.3,5.43C55.45,59.92,55.46,61.47,56.43,62.85Zm-7-3.92,2.81-1.1-1-3.79Z" transform="translate(0.02 0)"/><path class="cls-1" d="M27.42,62.85H24.94c.6-2.28,1.22-4.59,1.82-6.9.15-.58.24-1.17.36-1.76a2.19,2.19,0,0,0-.58-2.45c.85,0,1.55.11,2.25.1a2.12,2.12,0,0,1,2.15,1.55c.92,2.42,1.8,4.85,2.72,7.27.29.75.69,1.45,1,2.17H31c.79-.76.27-1.49,0-2.23-.2-.52-.38-1-.59-1.61-1.09.4-2.15.77-3.19,1.18-.4.16-.58,1.55-.29,2A6.13,6.13,0,0,0,27.42,62.85Zm-.1-4,2.65-1-1.42-3.64h-.14Z" transform="translate(0.02 0)"/><path class="cls-2" d="M40.25,9.19A47.18,47.18,0,0,0,45.52,21.1,42.63,42.63,0,0,0,54,30.93H26.52A44.88,44.88,0,0,0,40.25,9.19Zm0,4.33a45,45,0,0,1-4.31,8.71,40.28,40.28,0,0,1-6.22,7.44H50.78A41.54,41.54,0,0,1,40.24,13.52Z" transform="translate(0.02 0)"/><path class="cls-3" d="M6.68,10.55c8.58,4.34,17.8,5.7,27.34,6.32-.72,1.2-1.35,2.35-2.07,3.44a38.58,38.58,0,0,1-7.83,8.74,11,11,0,0,0-1.19.95c-1.24,1.34-2.85.94-4.36,1-.17,0-.38-.28-.49-.47q-1.53-2.64-3-5.3l-4.47-7.84Q8.61,14,6.68,10.55Zm3.1,2.66,1.09,1.94,7.56,13.22a2.36,2.36,0,0,0,3.24.66,33.11,33.11,0,0,0,7.93-8c.71-1,1.36-2.05,2.13-3.22A69.39,69.39,0,0,1,9.78,13.21Z" transform="translate(0.02 0)"/><path class="cls-4" d="M46.48,16.87c9.52-.62,18.75-2,27.32-6.32l-2.72,4.77q-3.47,6.06-6.92,12.12c-.6,1-1.21,2.06-1.78,3.11a.72.72,0,0,1-.79.43,3.57,3.57,0,0,0-.8,0,4.33,4.33,0,0,1-3.45-1.12,39.84,39.84,0,0,1-9.77-11.12C47.22,18.15,46.88,17.55,46.48,16.87Zm23.85-2.81a1.94,1.94,0,0,0,.35-.45,2.05,2.05,0,0,0,.1-.55l-.69.22a5.12,5.12,0,0,1-.52.27c-1.07.39-2.13.8-3.21,1.15-1.33.43-2.66.87-4,1.2-1.51.36-3,.61-4.58.87s-3.34.53-5,.74c-1.1.14-2.2.21-3.3.3-.47,0-.51.22-.26.59.8,1.2,1.49,2.47,2.37,3.6a34.31,34.31,0,0,0,5.92,6c1,.73,1.81,1.57,3.21,1.34.59-.1,1-.2,1.26-.74s.66-1.22,1-1.83l3-5.22c1-1.74,2-3.69,3.1-5.55C69.46,15.35,69.91,14.72,70.33,14.06Z" transform="translate(0.02 0)"/><path class="cls-5" d="M40.24,13.52A41.54,41.54,0,0,0,50.78,29.67H29.71a40.28,40.28,0,0,0,6.22-7.44A45,45,0,0,0,40.24,13.52Z" transform="translate(0.02 0)"/><path class="cls-6" d="M9.78,13.21a69.39,69.39,0,0,0,22,4.62C31,19,30.31,20.05,29.6,21.05a33.11,33.11,0,0,1-7.93,8,2.36,2.36,0,0,1-3.24-.66L10.87,15.15Z" transform="translate(0.02 0)"/><path class="cls-7" d="M70.33,14.06c-.42.66-.87,1.29-1.25,2C68,17.86,67,19.72,66,21.56S64,25,63,26.78c-.35.61-.7,1.21-1,1.83s-.67.64-1.26.74c-1.4.23-2.26-.61-3.21-1.34a34.31,34.31,0,0,1-5.92-6c-.88-1.13-1.57-2.4-2.37-3.6-.25-.37-.21-.55.26-.59,1.1-.09,2.2-.16,3.3-.3,1.68-.21,3.35-.47,5-.74s3.07-.51,4.58-.87c1.36-.33,2.69-.77,4-1.2,1.08-.35,2.14-.76,3.21-1.15a5.12,5.12,0,0,0,.52-.27l.36.07Z" transform="translate(0.02 0)"/><path class="cls-8" d="M70.33,14.06l.12-.71-.36-.07.69-.22a2.05,2.05,0,0,1-.1.55A1.94,1.94,0,0,1,70.33,14.06Z" transform="translate(0.02 0)"/></g></g></svg>