<?xml version="1.0"?>
<svg xmlns="http://www.w3.org/2000/svg" viewBox="0 0 120 120" width="512" height="512"><g><path d="M105,36h-3.94a5.52,5.52,0,0,0-8-5.85c-.92-5-8.24-5.82-10.23-1.13A5.46,5.46,0,0,0,75,31.43,5.45,5.45,0,0,0,66.72,36H55.45c.64-6.37-4.76-13.19-4.5-19.5h2.78a1.5,1.5,0,0,0,1.5-1.5V7.61a1.5,1.5,0,0,0-1.5-1.5H22.67a1.5,1.5,0,0,0-1.5,1.5V15c0,2.1,2.85,1.38,4.16,1.5-.81,7.16-9.22,12.09-9.42,19.5A5.65,5.65,0,0,0,9.5,41.5v37A5.51,5.51,0,0,0,15,84h6.11c-.61,4.46,3.88,8,8,5.85.92,5,8.24,5.82,10.23,1.13a5.46,5.46,0,0,0,7.88-2.41A5.45,5.45,0,0,0,55.45,84H66.72c-.63,6.4,4.77,13.17,4.5,19.5H68.44a1.5,1.5,0,0,0-1.5,1.5v7.39a1.5,1.5,0,0,0,1.5,1.5H99.5a1.5,1.5,0,0,0,1.5-1.5V105c0-2.11-2.85-1.38-4.17-1.5.85-7.21,9.29-12.15,9.45-19.65a5.51,5.51,0,0,0,4.22-5.35v-37A5.51,5.51,0,0,0,105,36Zm-9.36-3.49c2,0,2.62,1.78,2.42,3.49H93.23C93,34.29,93.69,32.55,95.64,32.51ZM85.39,31.26a2.42,2.42,0,0,1,4.84,0V36H85.39Zm-7.83,2.32a2.42,2.42,0,0,1,4.83,0V36H77.56Zm-5.42,0A2.43,2.43,0,0,1,74.56,36H69.72A2.42,2.42,0,0,1,72.14,33.61Zm-48-24.5H52.23V13.5H24.17Zm1.3,15.05a16.11,16.11,0,0,0,2.89-7.66H48c-.47,6.36,5,13.16,4.5,19.5H36.58a1.5,1.5,0,0,0-1.5,1.5A8.3,8.3,0,0,1,27,46.83a1.5,1.5,0,0,0-1.5,1.5V59.69a3.31,3.31,0,1,1-6.62,0V37.54C18.43,32.73,23,27.84,25.47,24.16Zm1.06,63.33c-2,0-2.62-1.78-2.42-3.49h4.83C29.14,85.71,28.48,87.45,26.53,87.49Zm10.25,1.25a2.42,2.42,0,0,1-4.84,0V84h4.84Zm5.42.1C39.41,88.69,39.76,86,39.78,84h4.83C44.64,86,45,88.69,42.2,88.84ZM50,86.39A2.43,2.43,0,0,1,47.61,84h4.84A2.42,2.42,0,0,1,50,86.39Zm48,24.5H69.94V106.5H98Zm5.35-28.39c.18,8-9.26,13.08-9.54,21H74.22c.48-6.37-5-13.15-4.5-19.5H85.6c1.57-.07,1.55-1.51,1.5-2.71a8.13,8.13,0,0,1,8.12-8.12,1.5,1.5,0,0,0,1.5-1.5V60.31a3.32,3.32,0,0,1,6.63,0Zm4.15-4a2.49,2.49,0,0,1-1.15,2.1V60.31c.15-5.48-7-8.43-10.78-4.46a6.24,6.24,0,0,0-1.85,4.46v10A11.13,11.13,0,0,0,84.1,81H30.44s-7.84,0-7.86,0H15a2.5,2.5,0,0,1-2.5-2.5v-37c0-1.79,1.67-2.73,3.33-2.5V59.69c-.17,5.48,7,8.44,10.77,4.46a6.26,6.26,0,0,0,1.85-4.46v-10A11.13,11.13,0,0,0,38.07,39H105a2.5,2.5,0,0,1,2.5,2.5Z"/><path d="M32.86,75H21a1.5,1.5,0,0,1-1.5-1.5V69.78a1.5,1.5,0,0,0-3,0V73.5A4.5,4.5,0,0,0,21,78H32.86A1.5,1.5,0,0,0,32.86,75Z"/><path d="M99,42H87.13a1.5,1.5,0,0,0,0,3H99a1.51,1.51,0,0,1,1.5,1.5v3.73a1.5,1.5,0,0,0,3,0V46.49A4.51,4.51,0,0,0,99,42Z"/><path d="M68.27,59.6v.83a1.5,1.5,0,0,0,3,0V59.6A1.5,1.5,0,0,0,68.27,59.6Z"/><path d="M50.23,58.1a1.5,1.5,0,0,0-1.5,1.5c-.12,1.09.2,2.31,1.5,2.33a1.5,1.5,0,0,0,1.5-1.5C51.85,59.34,51.54,58.12,50.23,58.1Z"/><path d="M58.68,55h2.64a.42.42,0,0,1,.42.43,1.5,1.5,0,0,0,3,0A3.42,3.42,0,0,0,61.5,52c0-1.24.31-3.23-1.5-3.27s-1.5,2-1.5,3.27a3.42,3.42,0,0,0-3.24,3.41v2.65a3.43,3.43,0,0,0,3.42,3.43h2.64a.42.42,0,0,1,.42.42V64.6a.42.42,0,0,1-.42.42H58.68c-.35,0-.46-.36-.42-.65a1.5,1.5,0,0,0-1.5-1.5,1.54,1.54,0,0,0-1.5,1.73A3.41,3.41,0,0,0,58.5,68c0,1.25-.31,3.23,1.5,3.28s1.5-2,1.5-3.28a3.41,3.41,0,0,0,3.24-3.4V61.94a3.42,3.42,0,0,0-3.42-3.42H58.68a.43.43,0,0,1-.42-.43V55.44A.42.42,0,0,1,58.68,55Z"/><path d="M60,42.37c-15.43-.2-23.41,19.31-12.41,30.09a17.56,17.56,0,0,0,24.82,0C83.41,61.68,75.43,42.17,60,42.37Zm10.28,28a14.55,14.55,0,0,1-20.56,0c-9.13-8.94-2.53-25.15,10.28-25C72.81,45.21,79.41,61.41,70.28,70.35Z"/></g></svg>
