<?xml version="1.0"?>
<svg xmlns="http://www.w3.org/2000/svg" id="Line_cutting_stroke_Ex" data-name="Line cutting stroke Ex" width="512" height="512" viewBox="0 0 512 512"><g><g><path d="M447.665,372.104l-34.5322-57.7793a8,8,0,0,1-.3037-7.65l24.9189-50.3984,5.7452-59.2583-6.12-.7378a21.8508,21.8508,0,0,0-13.4472,2.6841l-7.8731-13.93a37.7093,37.7093,0,0,1,23.2344-4.6392l13.88,1.6724a8,8,0,0,1,7.0059,8.7143L453.5322,259.28a8.0055,8.0055,0,0,1-.792,2.7739l-23.6367,47.8052,32.2959,54.0371Z"/><path d="M384.0771,496a7.9994,7.9994,0,0,1-6.9277-4L313.9189,382.4834l-10.416-8.1963,9.8946-12.5742,11.6269,9.1489a7.9994,7.9994,0,0,1,1.9805,2.2871l59.8857,103.7232,90.1924-55.5445-19.95-33.3813,13.7344-8.208,24,40.1577a8,8,0,0,1-2.6719,10.916l-103.9228,64A8.0039,8.0039,0,0,1,384.0771,496Z"/><path d="M134.1855,140.8438a56.1,56.1,0,0,1-12.6337-26.93,43.5074,43.5074,0,0,1,3.3164-31.5406c.6279-1.2124,1.3379-2.4326,2.1152-3.6333l.0215-.0434a55.9062,55.9062,0,0,1,52.1045-30.2232q.2109-.4314.4306-.8554c11.1534-21.544,38.0147-29.8633,59.8721-18.5474a45.3139,45.3139,0,0,1,4.0518,2.3711A71.9759,71.9759,0,0,1,335.627,34.002L325.0391,45.998a55.9671,55.9671,0,0,0-75.7442,1.5562,8,8,0,0,1-10.9326.124,29.2558,29.2558,0,0,0-6.3057-4.3989c-14.0293-7.2632-31.21-2.0132-38.3086,11.6958a27.604,27.604,0,0,0-1.8134,4.4419,8.006,8.006,0,0,1-8.8955,5.5093,39.9276,39.9276,0,0,0-41.7832,21.0459c-.07.1469-.1289.2661-.19.3852a7.94,7.94,0,0,1-.4541.7754,27.93,27.93,0,0,0-1.5352,2.5962,27.5789,27.5789,0,0,0-2.0087,20.2661,7.9931,7.9931,0,0,1,.1962.8809,40.1012,40.1012,0,0,0,9.0811,19.5683Zm7.087-54.9078Z"/><path d="M314.666,300.1284l-5.332-15.0849a51.9959,51.9959,0,0,0,28.4082-24.2886,8.0007,8.0007,0,0,1,11.6826-2.6948A32.0034,32.0034,0,0,0,400,232a32.1076,32.1076,0,0,0-21.043-30.0767,8.0016,8.0016,0,0,1-5.2392-6.9262,28.5879,28.5879,0,0,0-15.5635-23.3682c-.2891-.1494-.5791-.2851-.8682-.4219l-.1113-.0527a8.0043,8.0043,0,0,1-3.8818-3.9736l-.211-.437a8,8,0,0,1,3.3643-10.3877,27.5083,27.5083,0,0,0,12.7676-32.7706,28.7768,28.7768,0,0,0-14.2354-16.6621,29.4257,29.4257,0,0,0-5.7334-2.2426,8,8,0,0,1-5.8056-8.8291A56.6259,56.6259,0,0,0,344,88a55.9544,55.9544,0,0,0-7.4873-27.9937l13.85-8.0126A71.9846,71.9846,0,0,1,360,88q0,1.7607-.0908,3.5488,1.23.5472,2.4258,1.166A44.691,44.691,0,0,1,384.42,118.606a43.5418,43.5418,0,0,1-10.4931,44.4169,44.2588,44.2588,0,0,1,15.1015,25.8189A48.0115,48.0115,0,0,1,347.4414,275.39,67.9051,67.9051,0,0,1,314.666,300.1284Z"/><path d="M268.5176,292.5635l74.457-132.5147a8.0007,8.0007,0,0,0-3.0557-10.8935l-8.7177-4.8985a37.79,37.79,0,0,0-22.625-4.646l11.2822-20.08a8.0007,8.0007,0,0,0-3.0557-10.8935l-8.7177-4.8984a38.0613,38.0613,0,0,0-48.3907,9.5158l-2.1572-1.2121a38.0612,38.0612,0,0,0-48.3906,9.5156l-2.1563-1.2119a38.0439,38.0439,0,0,0-51.7431,14.5146L111.16,213.3237a8.0093,8.0093,0,0,0-.4688.9859L89.335,268.5083a37.8041,37.8041,0,0,0-4.2637,13.1279L80.39,317.0518l-17.789,30.9628,13.873,7.9708s19.4336-34.2354,19.57-35.27l4.8887-36.9829a21.9118,21.9118,0,0,1,2.6309-7.8935,8.0166,8.0166,0,0,0,.4687-.9854l21.3448-54.1689,43.8193-77.9854a22.0255,22.0255,0,0,1,29.956-8.4038l1.7432.98-50.9443,90.668L163.9,233.7812l54.8708-97.656.972-1.73a22.0251,22.0251,0,0,1,29.956-8.4033l1.7439.98-66.62,118.5654,13.9493,7.8379,70.539-125.54.0081-.0146.9714-1.729a22.0256,22.0256,0,0,1,29.9561-8.4033l1.7431.98L219.6953,265.1313l13.9492,7.8379,59.7627-106.36a22.0229,22.0229,0,0,1,29.9561-8.4028l1.7431.9794-86.2138,153.438a8,8,0,0,0,9.1347,11.6216l29.4161-8.251a22.1079,22.1079,0,0,1,26.07,12.3042l2.4873,5.6412-53.9,25.2851-56.06,4.273a8.0008,8.0008,0,0,0-6.4883,4.2836L132.5566,477.2876l-97.42-49.355,32.1445-55.9472-13.873-7.9708L17.0635,427.2729a8,8,0,0,0,3.3213,11.1216l112,56.7417a7.9951,7.9951,0,0,0,10.7119-3.4428l58.5957-112.58,53.0869-4.0464a8.002,8.002,0,0,0,2.7891-.7344l62.3037-29.227a7.9993,7.9993,0,0,0,3.9218-10.4707l-5.6416-12.793a38.1814,38.1814,0,0,0-45.03-21.2529l-10.8194,3.0346,6.2144-11.06Z"/></g><path d="M400.7773,89.9448a8.0023,8.0023,0,0,1-7.7978-6.248,40.2686,40.2686,0,0,1,18.1924-42.9195,32.0066,32.0066,0,1,1,38.2,38.45l-46.833,10.5214A8.0809,8.0809,0,0,1,400.7773,89.9448Zm36.3194-65.3559,1.7539,7.8056a15.9391,15.9391,0,0,0-12.44,14.2315,7.9986,7.9986,0,0,1-4.5869,6.563,24.1249,24.1249,0,0,0-13.6308,18.89l37.6709-8.4634a16,16,0,1,0-7.0137-31.2212Z"/><path d="M89.5771,144a8,8,0,0,1-1.7539-.1943L40.99,133.2842a32,32,0,1,1,38.2-38.45,40.2715,40.2715,0,0,1,18.1924,42.9194A8,8,0,0,1,89.5771,144ZM47.9736,86.0566a16.0031,16.0031,0,0,0-3.4756,31.6163l37.67,8.4633a24.1244,24.1244,0,0,0-13.63-18.8906,8,8,0,0,1-4.5869-6.563A15.9379,15.9379,0,0,0,51.5127,86.4517l-.001-.0005A16.138,16.138,0,0,0,47.9736,86.0566Z"/></g></svg>
